<mxfile host="app.diagrams.net" modified="2022-09-11T08:20:47.191Z" agent="5.0 (Windows)" etag="KBkU7-x-38r_UPVeLm6K" version="15.9.1" type="github">
  <diagram id="5nj7AKZcWYQtCZfu8FCz" name="Page-1">
    <mxGraphModel dx="868" dy="468" grid="1" gridSize="10" guides="1" tooltips="1" connect="1" arrows="1" fold="1" page="1" pageScale="1" pageWidth="827" pageHeight="1169" math="0" shadow="0">
      <root>
        <mxCell id="0" />
        <mxCell id="1" parent="0" />
        <mxCell id="dYsU5wRK8RfftVKQluZ8-2" value="artist" style="swimlane;fontSize=16;" vertex="1" parent="1">
          <mxGeometry x="370" y="320" width="130" height="165" as="geometry" />
        </mxCell>
        <mxCell id="dYsU5wRK8RfftVKQluZ8-3" value="&lt;p style=&quot;line-height: 1.2; font-size: 18px;&quot;&gt;&lt;/p&gt;&lt;div style=&quot;font-size: 18px;&quot; align=&quot;left&quot;&gt;&lt;font style=&quot;font-size: 18px;&quot;&gt;artist_id&lt;/font&gt;&lt;/div&gt;&lt;div style=&quot;font-size: 18px;&quot; align=&quot;left&quot;&gt;&lt;font style=&quot;font-size: 18px;&quot;&gt;first_name&lt;/font&gt;&lt;/div&gt;&lt;div style=&quot;font-size: 18px;&quot; align=&quot;left&quot;&gt;&lt;font style=&quot;font-size: 18px;&quot;&gt;last_name&lt;/font&gt;&lt;/div&gt;&lt;div style=&quot;font-size: 18px;&quot; align=&quot;left&quot;&gt;&lt;font style=&quot;font-size: 18px;&quot;&gt;birth_year&lt;/font&gt;&lt;/div&gt;&lt;div style=&quot;font-size: 18px;&quot; align=&quot;left&quot;&gt;&lt;font style=&quot;font-size: 18px;&quot;&gt;death_year&lt;br style=&quot;font-size: 18px;&quot;&gt;&lt;/font&gt;&lt;/div&gt;&lt;p style=&quot;font-size: 18px;&quot;&gt;&lt;/p&gt;" style="text;html=1;align=left;verticalAlign=middle;resizable=0;points=[];autosize=1;strokeColor=none;fillColor=none;perimeterSpacing=1;horizontal=1;spacingTop=8;spacing=7;spacingLeft=1;fontSize=18;" vertex="1" parent="dYsU5wRK8RfftVKQluZ8-2">
          <mxGeometry x="10" width="120" height="170" as="geometry" />
        </mxCell>
        <mxCell id="dYsU5wRK8RfftVKQluZ8-5" value="artwork" style="swimlane;fontSize=16;" vertex="1" parent="1">
          <mxGeometry x="360" y="40" width="230" height="192.5" as="geometry" />
        </mxCell>
        <mxCell id="dYsU5wRK8RfftVKQluZ8-6" value="&lt;p style=&quot;line-height: 1.2 ; font-size: 18px&quot;&gt;&lt;/p&gt;&lt;div style=&quot;font-size: 18px&quot; align=&quot;left&quot;&gt;&lt;font style=&quot;font-size: 18px&quot;&gt;artwork_id&lt;span style=&quot;white-space: pre&quot;&gt;	&lt;/span&gt;&lt;span style=&quot;white-space: pre&quot;&gt;	&lt;/span&gt;PK&lt;/font&gt;&lt;/div&gt;&lt;div style=&quot;font-size: 18px&quot; align=&quot;left&quot;&gt;&lt;font style=&quot;font-size: 18px&quot;&gt;artwork_name&lt;/font&gt;&lt;/div&gt;&lt;div style=&quot;font-size: 18px&quot; align=&quot;left&quot;&gt;&lt;font style=&quot;font-size: 18px&quot;&gt;technique&lt;/font&gt;&lt;/div&gt;&lt;div style=&quot;font-size: 18px&quot; align=&quot;left&quot;&gt;&lt;font style=&quot;font-size: 18px&quot;&gt;value&lt;br&gt;&lt;/font&gt;&lt;/div&gt;&lt;div style=&quot;font-size: 18px&quot; align=&quot;left&quot;&gt;&lt;font style=&quot;font-size: 18px&quot;&gt;year_created&lt;/font&gt;&lt;/div&gt;&lt;div style=&quot;font-size: 18px&quot; align=&quot;left&quot;&gt;&lt;font style=&quot;font-size: 18px&quot;&gt;artist_id&lt;span style=&quot;white-space: pre&quot;&gt;	&lt;/span&gt;&lt;span style=&quot;white-space: pre&quot;&gt;	&lt;/span&gt;&lt;span style=&quot;white-space: pre&quot;&gt;	&lt;/span&gt;FK&lt;br style=&quot;font-size: 18px&quot;&gt;&lt;/font&gt;&lt;/div&gt;&lt;p style=&quot;font-size: 18px&quot;&gt;&lt;/p&gt;" style="text;html=1;align=left;verticalAlign=middle;resizable=0;points=[];autosize=1;strokeColor=none;fillColor=none;perimeterSpacing=1;horizontal=1;spacingTop=8;spacing=7;spacingLeft=1;fontSize=18;" vertex="1" parent="dYsU5wRK8RfftVKQluZ8-5">
          <mxGeometry x="10" y="-7.5" width="210" height="200" as="geometry" />
        </mxCell>
        <mxCell id="dYsU5wRK8RfftVKQluZ8-7" value="artist" style="swimlane;fontSize=16;" vertex="1" parent="1">
          <mxGeometry x="120" y="300" width="130" height="165" as="geometry" />
        </mxCell>
        <mxCell id="dYsU5wRK8RfftVKQluZ8-8" value="&lt;p style=&quot;line-height: 1.2; font-size: 18px;&quot;&gt;&lt;/p&gt;&lt;div style=&quot;font-size: 18px;&quot; align=&quot;left&quot;&gt;&lt;font style=&quot;font-size: 18px;&quot;&gt;artist_id&lt;/font&gt;&lt;/div&gt;&lt;div style=&quot;font-size: 18px;&quot; align=&quot;left&quot;&gt;&lt;font style=&quot;font-size: 18px;&quot;&gt;first_name&lt;/font&gt;&lt;/div&gt;&lt;div style=&quot;font-size: 18px;&quot; align=&quot;left&quot;&gt;&lt;font style=&quot;font-size: 18px;&quot;&gt;last_name&lt;/font&gt;&lt;/div&gt;&lt;div style=&quot;font-size: 18px;&quot; align=&quot;left&quot;&gt;&lt;font style=&quot;font-size: 18px;&quot;&gt;birth_year&lt;/font&gt;&lt;/div&gt;&lt;div style=&quot;font-size: 18px;&quot; align=&quot;left&quot;&gt;&lt;font style=&quot;font-size: 18px;&quot;&gt;death_year&lt;br style=&quot;font-size: 18px;&quot;&gt;&lt;/font&gt;&lt;/div&gt;&lt;p style=&quot;font-size: 18px;&quot;&gt;&lt;/p&gt;" style="text;html=1;align=left;verticalAlign=middle;resizable=0;points=[];autosize=1;strokeColor=none;fillColor=none;perimeterSpacing=1;horizontal=1;spacingTop=8;spacing=7;spacingLeft=1;fontSize=18;" vertex="1" parent="dYsU5wRK8RfftVKQluZ8-7">
          <mxGeometry x="10" width="120" height="170" as="geometry" />
        </mxCell>
        <mxCell id="dYsU5wRK8RfftVKQluZ8-13" style="edgeStyle=orthogonalEdgeStyle;rounded=0;orthogonalLoop=1;jettySize=auto;html=1;exitX=1;exitY=0.25;exitDx=0;exitDy=0;fontSize=16;entryX=1;entryY=0.25;entryDx=0;entryDy=0;" edge="1" parent="1" target="dYsU5wRK8RfftVKQluZ8-9">
          <mxGeometry relative="1" as="geometry">
            <mxPoint x="360" y="190" as="sourcePoint" />
          </mxGeometry>
        </mxCell>
        <mxCell id="dYsU5wRK8RfftVKQluZ8-9" value="artist" style="swimlane;fontSize=16;" vertex="1" parent="1">
          <mxGeometry x="70" y="40" width="180" height="170" as="geometry" />
        </mxCell>
        <mxCell id="dYsU5wRK8RfftVKQluZ8-10" value="&lt;p style=&quot;line-height: 1.2 ; font-size: 18px&quot;&gt;&lt;/p&gt;&lt;div style=&quot;font-size: 18px&quot; align=&quot;left&quot;&gt;&lt;font style=&quot;font-size: 18px&quot;&gt;artist_id&lt;span style=&quot;white-space: pre&quot;&gt;	&lt;/span&gt;&lt;span style=&quot;white-space: pre&quot;&gt;	&lt;/span&gt;PK&lt;/font&gt;&lt;/div&gt;&lt;div style=&quot;font-size: 18px&quot; align=&quot;left&quot;&gt;&lt;font style=&quot;font-size: 18px&quot;&gt;first_name&lt;/font&gt;&lt;/div&gt;&lt;div style=&quot;font-size: 18px&quot; align=&quot;left&quot;&gt;&lt;font style=&quot;font-size: 18px&quot;&gt;last_name&lt;/font&gt;&lt;/div&gt;&lt;div style=&quot;font-size: 18px&quot; align=&quot;left&quot;&gt;&lt;font style=&quot;font-size: 18px&quot;&gt;birth_year&lt;/font&gt;&lt;/div&gt;&lt;div style=&quot;font-size: 18px&quot; align=&quot;left&quot;&gt;&lt;font style=&quot;font-size: 18px&quot;&gt;death_year&lt;br style=&quot;font-size: 18px&quot;&gt;&lt;/font&gt;&lt;/div&gt;&lt;p style=&quot;font-size: 18px&quot;&gt;&lt;/p&gt;" style="text;html=1;align=left;verticalAlign=middle;resizable=0;points=[];autosize=1;strokeColor=none;fillColor=none;perimeterSpacing=1;horizontal=1;spacingTop=8;spacing=7;spacingLeft=1;fontSize=18;" vertex="1" parent="dYsU5wRK8RfftVKQluZ8-9">
          <mxGeometry x="10" width="170" height="170" as="geometry" />
        </mxCell>
      </root>
    </mxGraphModel>
  </diagram>
</mxfile>
